# xmcd CD database file
#
# Track frame offsets:
#	150
#	19195
#	38370
#	59517
#	80782
#	108465
#	131240
#	150672
#	176935
#	196045
#
# Disc length: 2923 seconds
#
# Revision: 1
# Processed by: cddbd v1.5.2PL0 Copyright (c) Steve Scherf et al.
# Submitted via: CDex 1.51
#
DISCID=840b690a
DTITLE=Marcos witt - Adoremos!
DYEAR=1988
DGENRE=Música Cristiana
TTITLE0=Tengo la victoria
TTITLE1=Un adorador
TTITLE2=Tu misericordia
TTITLE3=Libertad
TTITLE4=Te amo
TTITLE5=Resucitó
TTITLE6=Mira
TTITLE7=Yo soy
TTITLE8=Adoremos
TTITLE9=Hoy
EXTD=YEAR: 1988
EXTT0=
EXTT1=
EXTT2=
EXTT3=
EXTT4=
EXTT5=
EXTT6=
EXTT7=
EXTT8=
EXTT9=
PLAYORDER=
